<?xml version="1.0" encoding="UTF-8" standalone="no"?>
<!-- Created with Inkscape (http://www.inkscape.org/) -->

<svg
   xmlns:dc="http://purl.org/dc/elements/1.1/"
   xmlns:cc="http://creativecommons.org/ns#"
   xmlns:rdf="http://www.w3.org/1999/02/22-rdf-syntax-ns#"
   xmlns:svg="http://www.w3.org/2000/svg"
   xmlns="http://www.w3.org/2000/svg"
   xmlns:xlink="http://www.w3.org/1999/xlink"
   xmlns:sodipodi="http://sodipodi.sourceforge.net/DTD/sodipodi-0.dtd"
   xmlns:inkscape="http://www.inkscape.org/namespaces/inkscape"
   width="128"
   height="128"
   id="svg2"
   sodipodi:version="0.32"
   inkscape:version="0.46+devel"
   version="1.0"
   sodipodi:docname="icon.svg"
   inkscape:output_extension="org.inkscape.output.svg.inkscape">
  <defs
     id="defs4">
    <linearGradient
       inkscape:collect="always"
       id="linearGradient1301">
      <stop
         style="stop-color:#cccccc;stop-opacity:1;"
         offset="0"
         id="stop1303" />
      <stop
         style="stop-color:#cccccc;stop-opacity:0;"
         offset="1"
         id="stop1305" />
    </linearGradient>
    <inkscape:perspective
       sodipodi:type="inkscape:persp3d"
       inkscape:vp_x="0 : 526.18109 : 1"
       inkscape:vp_y="0 : 1000 : 0"
       inkscape:vp_z="744.09448 : 526.18109 : 1"
       inkscape:persp3d-origin="372.04724 : 350.78739 : 1"
       id="perspective10" />
    <inkscape:perspective
       sodipodi:type="inkscape:persp3d"
       inkscape:vp_x="0 : 0.5 : 1"
       inkscape:vp_y="0 : 1000 : 0"
       inkscape:vp_z="1 : 0.5 : 1"
       inkscape:persp3d-origin="0.5 : 0.33333333 : 1"
       id="perspective20" />
    <inkscape:perspective
       id="perspective10-9"
       inkscape:persp3d-origin="372.04724 : 350.78739 : 1"
       inkscape:vp_z="744.09448 : 526.18109 : 1"
       inkscape:vp_y="0 : 1000 : 0"
       inkscape:vp_x="0 : 526.18109 : 1"
       sodipodi:type="inkscape:persp3d" />
    <inkscape:perspective
       id="perspective243"
       inkscape:persp3d-origin="0.5 : 0.33333333 : 1"
       inkscape:vp_z="1 : 0.5 : 1"
       inkscape:vp_y="0 : 1000 : 0"
       inkscape:vp_x="0 : 0.5 : 1"
       sodipodi:type="inkscape:persp3d" />
    <linearGradient
       inkscape:collect="always"
       xlink:href="#linearGradient1301"
       id="linearGradient1307"
       x1="301.12924"
       y1="490.07394"
       x2="321.32953"
       y2="469.87366"
       gradientUnits="userSpaceOnUse" />
    <linearGradient
       inkscape:collect="always"
       xlink:href="#linearGradient1301"
       id="linearGradient518"
       gradientUnits="userSpaceOnUse"
       x1="301.12924"
       y1="490.07394"
       x2="321.32953"
       y2="469.87366" />
  </defs>
  <sodipodi:namedview
     id="base"
     pagecolor="#ffffff"
     bordercolor="#666666"
     borderopacity="1.0"
     inkscape:pageopacity="0.0"
     inkscape:pageshadow="2"
     inkscape:zoom="2.6626171"
     inkscape:cx="-29.121411"
     inkscape:cy="43.013191"
     inkscape:document-units="px"
     inkscape:current-layer="layer1"
     showgrid="false"
     inkscape:window-width="1280"
     inkscape:window-height="946"
     inkscape:window-x="0"
     inkscape:window-y="25" />
  <metadata
     id="metadata7">
    <rdf:RDF>
      <cc:Work
         rdf:about="">
        <dc:format>image/svg+xml</dc:format>
        <dc:type
           rdf:resource="http://purl.org/dc/dcmitype/StillImage" />
        <dc:title />
      </cc:Work>
    </rdf:RDF>
  </metadata>
  <g
     inkscape:label="Layer 1"
     inkscape:groupmode="layer"
     id="layer1"
     transform="translate(-301.12923,-442.07395)">
    <g
       id="g504"
       transform="matrix(2.7082937,0,0,2.7082937,-514.41717,-757.19024)">
      <path
         sodipodi:nodetypes="cccc"
         id="rect455"
         d="m 301.12923,449.67335 40.40059,40.4006 -40.40059,0 0,-40.4006 z"
         style="fill:url(#linearGradient518);fill-opacity:1;stroke:none" />
      <path
         sodipodi:nodetypes="csccsssssscccssssssssssccsssssssc"
         id="path183"
         d="m 326.70021,457.59852 c -0.1397,0 -0.24022,4.71446 -0.23463,12.88355 0.008,11.0502 0.0955,14.53984 0.36498,15.02512 1.78903,4.08009 7.68603,3.51473 8.5301,-0.72997 0.16382,-1.22136 0.74208,-1.56448 1.0428,-0.61699 0.26855,0.84613 1.98393,2.20005 3.04152,2.39846 1.33162,0.24981 2.76631,-0.29144 3.75411,-1.41648 1.5553,-1.77139 1.39216,-4.09261 -0.39974,-5.66592 -1.77374,-1.55737 -4.08743,-1.38938 -5.66592,0.40843 -0.46181,0.52597 -0.97209,0.9559 -1.12971,0.9559 -0.18406,0 -0.28677,-1.50027 -0.28677,-4.1973 l 0,-4.1973 -1.59028,1.45125 c -0.87294,0.79781 -1.87403,1.57825 -2.22466,1.73801 -0.84005,0.38275 -0.80837,1.1421 0.0608,1.53814 0.68742,0.31321 0.69521,0.35342 0.69521,3.78018 0,2.03091 -0.23172,3.45354 -0.27809,3.64113 -0.37891,1.53289 -2.04193,1.28203 -2.58609,0 -0.10681,-0.25165 -0.44277,-11.672 -0.55616,-11.69682 -0.0574,-0.0126 0.0179,-10.03373 0.55616,-10.572 0.30589,-0.30589 0.73552,-0.55616 0.95591,-0.55616 0.933,0 0.56925,-0.53113 -1.12102,-1.64242 -0.99092,-0.6515 -1.99965,-1.48974 -2.24204,-1.85967 -0.24239,-0.36994 -0.55116,-0.66914 -0.68651,-0.66914 z m 13.46605,23.52019 c 0.28404,0 0.71557,0.19416 0.95591,0.4345 0.24034,0.24034 0.4345,0.67187 0.4345,0.95591 0,0.28404 -0.19416,0.71556 -0.4345,0.9559 -0.24034,0.24035 -0.67187,0.43451 -0.95591,0.43451 -0.28404,0 -0.71557,-0.19416 -0.95591,-0.43451 -0.24034,-0.24034 -0.4345,-0.67186 -0.4345,-0.9559 0,-0.28404 0.19416,-0.71557 0.4345,-0.95591 0.24034,-0.24034 0.67187,-0.4345 0.95591,-0.4345 z"
         style="fill:#808000" />
      <path
         sodipodi:type="arc"
         style="fill:#ff0000;fill-opacity:1;stroke:none"
         id="path187"
         sodipodi:cx="103.92857"
         sodipodi:cy="35.142857"
         sodipodi:rx="8.2142859"
         sodipodi:ry="8.2142859"
         d="m 112.14286,35.142857 c 0,4.536624 -3.67766,8.214285 -8.21429,8.214285 -4.536621,0 -8.214282,-3.677661 -8.214282,-8.214285 0,-4.536625 3.677661,-8.214286 8.214282,-8.214286 4.53663,0 8.21429,3.677661 8.21429,8.214286 z"
         transform="matrix(0.19663366,-0.19663366,0.19663366,0.19663366,305.29354,483.88328)" />
      <path
         sodipodi:nodetypes="cccssccsssscccsssccc"
         id="path173"
         d="m 323.04303,467.3355 -3.978,-3.97817 0.35656,-0.5955 c 0.1961,-0.32753 0.54994,-0.72582 0.7863,-0.88508 0.4491,-0.3026 0.50605,-0.25486 5.4705,4.58561 0.68448,0.66737 1.31241,1.14551 1.39541,1.06251 0.0786,-0.0334 14.66665,-13.27736 14.35325,-15.52953 -0.14699,-0.28368 -0.4117,-0.54987 -0.58833,-0.59148 -0.18774,-0.0444 -1.32661,0.92983 -2.74463,2.34785 -2.36831,2.3683 -2.41982,2.44231 -2.25422,3.23739 0.21121,1.01399 -0.15067,1.40527 -1.0044,1.086 -0.3609,-0.13497 -1.62278,-0.28886 -2.80417,-0.34198 l -2.14798,-0.0966 3.72893,-3.72893 c 5.08764,-5.08765 5.684,-5.46824 8.39894,-5.36024 1.1826,0.0471 2.16442,0.0998 2.18181,0.11716 0.24077,0.24077 0.034,4.85946 -0.23695,5.2916 -0.20353,0.32467 -7.48653,7.7523 -13.27175,13.59314 l -3.66327,3.7644 -3.978,-3.97817 z"
         style="fill:#000000" />
      <path
         id="path175"
         d="m 321.07367,468.11885 c -1.72243,0.21457 -2.78379,0.0649 -4.1993,-0.59206 -1.58113,-0.73387 -2.22036,-1.35348 -2.80565,-2.71956 -0.43576,-1.01705 -0.564,-1.14529 -1.58103,-1.58103 -3.18821,-1.36598 -4.46883,-5.37816 -2.79994,-8.77215 0.77938,-1.58501 1.39258,-2.16379 3.13166,-2.95584 1.69022,-0.76981 3.57307,-0.86672 5.18202,-0.26672 1.33733,0.49872 2.00722,1.10238 2.92231,2.6334 l 0.6639,1.11078 -1.48731,0.0177 c -1.15556,0.0138 -1.62325,-0.12885 -2.09674,-0.63933 -0.8491,-0.91543 -2.48044,-1.27469 -3.9045,-0.85988 -1.52051,0.4429 -1.77359,0.68067 -2.40494,2.25937 -0.66336,1.6587 -0.35262,3.023 0.99617,4.37376 0.73428,0.73546 1.26593,1.03771 1.97343,1.12222 0.78229,0.0934 0.98497,0.22208 1.05489,0.66952 0.3602,2.30523 1.57206,3.53009 3.62455,3.66342 1.02853,0.0668 1.41333,0.25291 2.24739,1.08697 0.5535,0.55351 0.93902,1.07175 0.85671,1.15167 -0.0823,0.0799 -0.70044,0.2139 -1.37362,0.29777 z"
         style="fill:#000000" />
      <path
         id="path177"
         d="m 324.14964,464.49434 c -0.76029,-0.77365 -0.8253,-0.99708 -0.61874,-2.12666 0.53424,-2.9214 -2.96023,-5.73194 -5.3487,-4.30186 -0.31515,0.18869 -0.92163,0.78028 -1.34773,1.31465 l -0.77474,0.97156 -1.92813,-1.92813 c -2.15164,-2.15164 -2.36116,-2.73111 -1.35229,-3.73998 0.63188,-0.63188 0.67442,-0.61287 2.10526,0.94099 0.81579,0.88593 1.07307,1.03121 1.46879,0.82937 1.42202,-0.7253 2.01041,-0.89295 3.26219,-0.92952 4.31722,-0.12613 7.09879,3.15094 6.35257,7.4842 -0.0973,0.56482 -0.35507,1.3246 -0.57289,1.6884 -0.38504,0.64307 -0.41966,0.63743 -1.24559,-0.20301 z"
         style="fill:#000000" />
      <path
         id="path179"
         d="m 317.79212,463.26422 c -1.02073,0.47304 -1.51843,0.12871 -1.58693,-1.09789 -0.0294,-0.5258 0.17265,-0.81672 1.01522,-1.46193 0.62892,-0.4816 1.2527,-1.20414 1.55128,-1.79688 0.46212,-0.9174 0.55908,-0.98511 1.29926,-0.9073 1.2729,0.13381 1.55559,0.65491 1.02591,1.89116 -0.55918,1.30515 -1.9866,2.76197 -3.30474,3.37284 z"
         style="fill:#ff0000" />
      <path
         id="path181"
         d="m 307.57822,451.47289 -1.98572,-1.99008 1.11693,0.13226 c 0.61431,0.0727 2.05998,-10e-4 3.2126,-0.16478 1.44221,-0.20441 1.97523,-0.17661 1.70943,0.0892 -0.21242,0.21243 -0.43604,0.80326 -0.49692,1.31296 -0.0609,0.5097 -0.43917,1.30558 -0.84064,1.76863 l -0.72995,0.84191 -1.98572,-1.99009 z"
         style="fill:#000000" />
      <path
         transform="matrix(0.19663366,-0.19663366,0.19663366,0.19663366,315.0356,475.13531)"
         d="m 112.14286,35.142857 c 0,4.536624 -3.67766,8.214285 -8.21429,8.214285 -4.536621,0 -8.214282,-3.677661 -8.214282,-8.214285 0,-4.536625 3.677661,-8.214286 8.214282,-8.214286 4.53663,0 8.21429,3.677661 8.21429,8.214286 z"
         sodipodi:ry="8.2142859"
         sodipodi:rx="8.2142859"
         sodipodi:cy="35.142857"
         sodipodi:cx="103.92857"
         id="path185"
         style="fill:#ff0000;fill-opacity:1;stroke:none"
         sodipodi:type="arc" />
      <path
         sodipodi:type="arc"
         style="fill:#ff0000;fill-opacity:1;stroke:none"
         id="path189"
         sodipodi:cx="103.92857"
         sodipodi:cy="35.142857"
         sodipodi:rx="8.2142859"
         sodipodi:ry="8.2142859"
         d="m 112.14286,35.142857 c 0,4.536624 -3.67766,8.214285 -8.21429,8.214285 -4.536621,0 -8.214282,-3.677661 -8.214282,-8.214285 0,-4.536625 3.677661,-8.214286 8.214282,-8.214286 4.53663,0 8.21429,3.677661 8.21429,8.214286 z"
         transform="matrix(0,-0.27808199,0.27808199,0,304.36025,475.04997)" />
      <path
         transform="matrix(0,-0.27808199,0.27808199,0,299.3945,475.04997)"
         d="m 112.14286,35.142857 c 0,4.536624 -3.67766,8.214285 -8.21429,8.214285 -4.536621,0 -8.214282,-3.677661 -8.214282,-8.214285 0,-4.536625 3.677661,-8.214286 8.214282,-8.214286 4.53663,0 8.21429,3.677661 8.21429,8.214286 z"
         sodipodi:ry="8.2142859"
         sodipodi:rx="8.2142859"
         sodipodi:cy="35.142857"
         sodipodi:cx="103.92857"
         id="path191"
         style="fill:#ff0000;fill-opacity:1;stroke:none"
         sodipodi:type="arc" />
      <path
         sodipodi:nodetypes="csssccsssssssssssssssssssssscccsssssssccsssc"
         id="path439"
         d="m 326.44122,444.18995 c -0.0521,-0.003 -0.0985,0.0348 -0.18183,0.0606 -0.98512,0.30573 -2.2595,1.65139 -2.72745,2.90929 -0.50489,1.35723 -0.58992,2.353 -0.24244,4.00025 0.39198,1.8582 1.00737,3.16301 2.00013,4.2427 0.78205,1.23028 2.6791,0.44607 1.39403,-0.84854 -1.78788,-1.74981 -2.43582,-4.70128 -1.51525,-6.84892 0.32619,-0.76098 1.00539,-1.39403 1.51525,-1.39403 0.44326,0 0.90915,0.43389 0.90915,0.84854 0,0.68959 -0.83944,1.22128 -1.27281,0.78792 -0.10072,-0.10143 -0.21306,-0.17669 -0.30305,-0.12122 -0.22671,0.14011 -0.072,0.69094 0.30305,1.03037 0.19847,0.17952 0.30305,0.52834 0.30305,0.90915 0,0.41008 0.14269,0.8075 0.48488,1.27281 0.43337,0.58923 0.48149,0.68407 0.30305,0.96976 -0.16992,0.27211 -0.16893,0.48843 0.0606,0.96976 0.15322,0.32132 0.3914,0.54549 0.48488,0.54549 0.0934,0 0.27105,-0.22417 0.42427,-0.54549 0.2341,-0.49116 0.24079,-0.68116 0.0606,-0.96976 -0.18517,-0.2964 -0.18017,-0.35594 0.12122,-0.72732 0.46951,-0.5786 0.88703,-1.49921 0.78792,-1.75769 -0.0443,-0.11556 0.0833,-0.39967 0.30306,-0.6061 0.21968,-0.2064 0.42426,-0.52469 0.42426,-0.72731 0,-0.34117 -0.0275,-0.35446 -0.48487,-0.18184 -0.4295,0.16211 -0.54396,0.12276 -0.84855,-0.18183 -0.71353,-0.71353 0.15547,-1.82028 1.09098,-1.39403 0.55379,0.25234 0.8392,0.78072 1.1516,2.00013 0.24084,0.94205 0.22682,1.13026 0,2.24257 -0.29127,1.42818 -1.30678,3.96541 -2.49389,4.38528 0.0277,0.002 -0.29611,1.09517 0.8192,1.15837 0.95783,-0.2841 3.286,-4.24192 3.18993,-4.69511 0.82248,-2.66881 0.0252,-5.55016 -1.87891,-6.78831 -0.86085,-0.55979 -1.10406,-0.48909 -1.27281,0.36366 -0.0759,0.38392 -0.16428,0.72732 -0.24243,0.72732 -0.0782,0 -0.40034,0.13952 -0.66671,0.36365 -0.47862,0.40276 -0.4402,0.43849 -0.72732,0.12123 -0.15981,-0.17658 -0.44842,-0.37424 -0.6061,-0.42428 -0.20038,-0.0636 -0.28705,-0.33126 -0.36366,-0.90915 -0.0754,-0.5689 -0.14671,-0.77935 -0.30305,-0.78793 z m 1.51524,4.00026 c 0.11629,0.0158 0.26577,0.16764 0.36367,0.54549 0.10454,0.40303 0.0487,0.61803 -0.12122,0.78792 -0.36823,0.36823 -0.68358,-0.1126 -0.54549,-0.84853 0.0667,-0.35555 0.18678,-0.50065 0.30304,-0.48488 z"
         style="fill:#cccccc" />
    </g>
  </g>
</svg>
